#N canvas 961 318 728 552 12;
#X msg 84 22 devices;
#X msg 200 96 close;
#X obj 85 116 comport;
#X obj 84 154 pdchoco/slip_parse;
#X msg 301 419 disconnect;
#X obj 92 460 netsend -u -b;
#X obj 84 223 list trim;
#X obj 84 260 route key;
#X msg 198 64 open 5;
#X msg 185 34 baud 115200;
#X obj 86 188 oscparse;
#X msg 302 380 connect 127.0.0.1 9999;
#X floatatom 110 304 5 0 0 0 - - - 0;
#X text 173 307 /test i;
#X obj 113 336 oscformat -f i key;
#X connect 0 0 2 0;
#X connect 1 0 2 0;
#X connect 2 0 3 0;
#X connect 3 0 10 0;
#X connect 4 0 5 0;
#X connect 6 0 7 0;
#X connect 7 0 12 0;
#X connect 8 0 2 0;
#X connect 9 0 2 0;
#X connect 10 0 6 0;
#X connect 11 0 5 0;
#X connect 12 0 14 0;
#X connect 14 0 5 0;
