#N canvas 849 204 728 552 12;
#X msg 100 58 devices;
#X msg 202 98 close;
#X obj 103 149 comport;
#X obj 97 215 pdchoco/slip_parse;
#X msg 216 366 connect 127.0.0.1 8001;
#X msg 215 405 disconnect;
#X obj 92 460 netsend -u -b;
#X msg 200 59 baud 115200 \, open 5;
#X obj 96 247 oscparse;
#X obj 95 276 list trim;
#X obj 95 307 route key;
#X connect 0 0 2 0;
#X connect 1 0 2 0;
#X connect 2 0 3 0;
#X connect 3 0 8 0;
#X connect 4 0 6 0;
#X connect 5 0 6 0;
#X connect 7 0 2 0;
#X connect 8 0 9 0;
#X connect 9 0 10 0;
#X connect 10 0 6 0;
